<svg width="100" height="88" viewBox="0 0 100 88" fill="none" xmlns="http://www.w3.org/2000/svg">
<path d="M74.8842 86.3936L21.3162 38.0096L25.4442 40.3136L25.7322 83.5136H11.6202V10.0736H12.1962L64.6122 58.2656L61.5402 56.9216L61.2522 12.8576H75.2682V86.3936H74.8842Z" fill="#7453D1"/>
<path d="M42.5002 27.5136L5.50021 58.5136" stroke="#291A3D" stroke-width="3"/>
<path d="M47.4377 35.9074C48.63 32.2042 48.9463 28.8519 48.5533 25.8222" stroke="white"/>
<path d="M74.8842 86.3936L21.3162 38.0096L25.4442 40.3136L25.7322 83.5136H11.6202V10.0736H12.1962L64.6122 58.2656L61.5402 56.9216L61.2522 12.8576H75.2682V86.3936H74.8842Z" fill="#7453D1"/>
<path d="M42.5002 27.5136L5.50021 58.5136" stroke="#291A3D" stroke-width="3"/>
<path d="M89.5002 1.51358H91.0002V5.36442e-06L89.4867 0.0136412L89.5002 1.51358ZM0.0170559 47.5993C-0.106766 48.4184 0.456885 49.1828 1.27601 49.3066C2.09513 49.4304 2.85953 48.8668 2.98336 48.0477L1.50021 47.8235L0.0170559 47.5993ZM89.5002 1.51358H88.0002V57.5136H89.5002H91.0002V1.51358H89.5002ZM1.50021 47.8235L2.98336 48.0477C5.57723 30.8884 19.4764 19.6853 36.871 12.7027C54.2281 5.73516 74.6738 3.14722 89.5137 3.01352L89.5002 1.51358L89.4867 0.0136412C74.3999 0.149564 53.5583 2.77132 35.7534 9.91866C17.986 17.051 2.84856 28.868 0.0170559 47.5993L1.50021 47.8235Z" fill="#291A3D"/>
<path d="M89.5002 1.51358H90.5002V0.50453L89.4912 0.513621L89.5002 1.51358ZM89.5002 63.2871L95.2737 57.5136L89.5002 51.7401L83.7267 57.5136L89.5002 63.2871ZM0.511439 47.674C0.428891 48.2201 0.804659 48.7297 1.35074 48.8122C1.89682 48.8948 2.40642 48.519 2.48897 47.9729L1.50021 47.8235L0.511439 47.674ZM89.5002 1.51358H88.5002V57.5136H89.5002H90.5002V1.51358H89.5002ZM1.50021 47.8235L2.48897 47.9729C5.12245 30.5517 19.228 19.2463 36.6847 12.2387C54.1165 5.24118 74.6282 2.64761 89.5092 2.51354L89.5002 1.51358L89.4912 0.513621C74.4455 0.649173 53.67 3.26529 35.9397 10.3827C18.2344 17.49 3.30334 29.2047 0.511439 47.674L1.50021 47.8235Z" fill="white"/>
<path d="M54.5835 38.9427C55.7758 35.2394 56.0921 31.8872 55.6991 28.8575" stroke="white"/>
<path d="M89.5002 51.5136L99.5002 61.5136L89.5002 71.5136L79.5002 61.5136L89.5002 51.5136Z" fill="#7453D1"/>
<path d="M52.5002 11.5136H64.5002L63.7943 78.7314V84.5136H59.559M52.5002 84.5136H57.4414H59.559M59.559 84.5136V71.5037V11.6482" stroke="#291A3D" stroke-width="5"/>
<path d="M89.5002 52.5136V51.5136" stroke="white" stroke-width="2"/>
</svg>
