<svg width="468" height="120" viewBox="0 0 468 120" fill="none" xmlns="http://www.w3.org/2000/svg">
<path d="M96.512 102.84L25.088 38.328L30.592 41.4L30.976 99H12.16V1.07999H12.928L82.816 65.336L78.72 63.544L78.336 4.79199H97.024V102.84H96.512Z" fill="#7453D1"/>
<path d="M49 27L4 65" stroke="#291A3D" stroke-width="3"/>
<path d="M62 5H75L74.2353 88.7921V96H69.6471M62 96H67.3529H69.6471M69.6471 96V79.7822V5.16787" stroke="#291A3D" stroke-width="10"/>
<g filter="url(#filter0_d_2015_201)">
<path d="M115.792 25.304H161.584V35.192H126.064V55.064H157.648V64.952H126.064V85.112H162.928V95H115.792V25.304ZM172.938 25.304H185.994L231.306 95H218.154L172.938 25.304ZM171.978 95L196.266 56.888L201.258 66.968L184.65 95H171.978ZM201.642 53.144L218.058 25.304H230.442L207.114 61.88L201.642 53.144ZM236.535 60.248C236.535 55.448 237.431 50.904 239.223 46.616C241.079 42.328 243.639 38.52 246.903 35.192C250.167 31.864 253.943 29.272 258.231 27.416C262.519 25.496 267.127 24.536 272.055 24.536C276.919 24.536 281.495 25.496 285.783 27.416C290.071 29.272 293.879 31.864 297.207 35.192C300.535 38.52 303.127 42.328 304.983 46.616C306.839 50.904 307.767 55.448 307.767 60.248C307.767 65.176 306.839 69.784 304.983 74.072C303.127 78.36 300.535 82.136 297.207 85.4C293.943 88.664 290.135 91.224 285.783 93.08C281.495 94.872 276.919 95.768 272.055 95.768C267.127 95.768 262.519 94.872 258.231 93.08C253.943 91.288 250.167 88.792 246.903 85.592C243.639 82.328 241.079 78.552 239.223 74.264C237.431 69.912 236.535 65.24 236.535 60.248ZM247.095 60.248C247.095 63.832 247.735 67.192 249.015 70.328C250.359 73.4 252.183 76.12 254.487 78.488C256.791 80.792 259.447 82.616 262.455 83.96C265.527 85.24 268.823 85.88 272.343 85.88C275.799 85.88 279.031 85.24 282.039 83.96C285.047 82.616 287.671 80.792 289.911 78.488C292.215 76.12 294.007 73.4 295.287 70.328C296.567 67.192 297.207 63.832 297.207 60.248C297.207 56.664 296.535 53.336 295.191 50.264C293.911 47.128 292.119 44.376 289.815 42.008C287.575 39.64 284.919 37.784 281.847 36.44C278.839 35.096 275.607 34.424 272.151 34.424C268.567 34.424 265.271 35.096 262.263 36.44C259.255 37.784 256.599 39.64 254.295 42.008C251.991 44.376 250.199 47.128 248.919 50.264C247.703 53.4 247.095 56.728 247.095 60.248ZM342.177 25.304C345.825 25.304 349.185 25.816 352.257 26.84C355.393 27.8 358.049 29.208 360.225 31.064C362.465 32.92 364.193 35.224 365.409 37.976C366.689 40.664 367.329 43.8 367.329 47.384C367.329 50.136 366.913 52.856 366.081 55.544C365.249 58.232 363.905 60.664 362.049 62.84C360.193 65.016 357.761 66.776 354.753 68.12C351.745 69.4 348.001 70.04 343.521 70.04H333.345V95H323.073V25.304H342.177ZM343.329 60.248C345.953 60.248 348.129 59.832 349.857 59C351.649 58.168 353.025 57.144 353.985 55.928C355.009 54.648 355.713 53.304 356.097 51.896C356.545 50.424 356.769 49.016 356.769 47.672C356.769 46.392 356.545 45.048 356.097 43.64C355.713 42.232 355.009 40.888 353.985 39.608C353.025 38.328 351.713 37.272 350.049 36.44C348.385 35.608 346.337 35.192 343.905 35.192H333.345V60.248H343.329ZM355.137 66.2L373.185 95H361.281L342.945 66.488L355.137 66.2ZM401.224 72.056L375.4 25.304H388.072L408.136 63.32L405.064 63.512L424.936 25.304H437.512L411.496 72.056V95H401.224V72.056Z" fill="#835EE9"/>
</g>
<path d="M49 27L4 65" stroke="#291A3D" stroke-width="3"/>
<g filter="url(#filter1_d_2015_201)">
<path d="M115.792 25.304H161.584V35.192H126.064V55.064H157.648V64.952H126.064V85.112H162.928V95H115.792V25.304ZM172.938 25.304H185.994L231.306 95H218.154L172.938 25.304ZM171.978 95L196.266 56.888L201.258 66.968L184.65 95H171.978ZM201.642 53.144L218.058 25.304H230.442L207.114 61.88L201.642 53.144ZM236.535 60.248C236.535 55.448 237.431 50.904 239.223 46.616C241.079 42.328 243.639 38.52 246.903 35.192C250.167 31.864 253.943 29.272 258.231 27.416C262.519 25.496 267.127 24.536 272.055 24.536C276.919 24.536 281.495 25.496 285.783 27.416C290.071 29.272 293.879 31.864 297.207 35.192C300.535 38.52 303.127 42.328 304.983 46.616C306.839 50.904 307.767 55.448 307.767 60.248C307.767 65.176 306.839 69.784 304.983 74.072C303.127 78.36 300.535 82.136 297.207 85.4C293.943 88.664 290.135 91.224 285.783 93.08C281.495 94.872 276.919 95.768 272.055 95.768C267.127 95.768 262.519 94.872 258.231 93.08C253.943 91.288 250.167 88.792 246.903 85.592C243.639 82.328 241.079 78.552 239.223 74.264C237.431 69.912 236.535 65.24 236.535 60.248ZM247.095 60.248C247.095 63.832 247.735 67.192 249.015 70.328C250.359 73.4 252.183 76.12 254.487 78.488C256.791 80.792 259.447 82.616 262.455 83.96C265.527 85.24 268.823 85.88 272.343 85.88C275.799 85.88 279.031 85.24 282.039 83.96C285.047 82.616 287.671 80.792 289.911 78.488C292.215 76.12 294.007 73.4 295.287 70.328C296.567 67.192 297.207 63.832 297.207 60.248C297.207 56.664 296.535 53.336 295.191 50.264C293.911 47.128 292.119 44.376 289.815 42.008C287.575 39.64 284.919 37.784 281.847 36.44C278.839 35.096 275.607 34.424 272.151 34.424C268.567 34.424 265.271 35.096 262.263 36.44C259.255 37.784 256.599 39.64 254.295 42.008C251.991 44.376 250.199 47.128 248.919 50.264C247.703 53.4 247.095 56.728 247.095 60.248ZM342.177 25.304C345.825 25.304 349.185 25.816 352.257 26.84C355.393 27.8 358.049 29.208 360.225 31.064C362.465 32.92 364.193 35.224 365.409 37.976C366.689 40.664 367.329 43.8 367.329 47.384C367.329 50.136 366.913 52.856 366.081 55.544C365.249 58.232 363.905 60.664 362.049 62.84C360.193 65.016 357.761 66.776 354.753 68.12C351.745 69.4 348.001 70.04 343.521 70.04H333.345V95H323.073V25.304H342.177ZM343.329 60.248C345.953 60.248 348.129 59.832 349.857 59C351.649 58.168 353.025 57.144 353.985 55.928C355.009 54.648 355.713 53.304 356.097 51.896C356.545 50.424 356.769 49.016 356.769 47.672C356.769 46.392 356.545 45.048 356.097 43.64C355.713 42.232 355.009 40.888 353.985 39.608C353.025 38.328 351.713 37.272 350.049 36.44C348.385 35.608 346.337 35.192 343.905 35.192H333.345V60.248H343.329ZM355.137 66.2L373.185 95H361.281L342.945 66.488L355.137 66.2ZM401.224 72.056L375.4 25.304H388.072L408.136 63.32L405.064 63.512L424.936 25.304H437.512L411.496 72.056V95H401.224V72.056Z" fill="#835EE9"/>
</g>
<path d="M55 35.3504C57.8966 26.0659 58.6649 17.6616 57.7102 10.0659" stroke="white"/>
<path d="M69 36.3504C71.8966 27.0659 72.6649 18.6616 71.7102 11.0659" stroke="white"/>
<defs>
<filter id="filter0_d_2015_201" x="105.792" y="8.53601" width="361.72" height="111.232" filterUnits="userSpaceOnUse" color-interpolation-filters="sRGB">
<feFlood flood-opacity="0" result="BackgroundImageFix"/>
<feColorMatrix in="SourceAlpha" type="matrix" values="0 0 0 0 0 0 0 0 0 0 0 0 0 0 0 0 0 0 127 0" result="hardAlpha"/>
<feOffset dx="10" dy="4"/>
<feGaussianBlur stdDeviation="10"/>
<feComposite in2="hardAlpha" operator="out"/>
<feColorMatrix type="matrix" values="0 0 0 0 0 0 0 0 0 0 0 0 0 0 0 0 0 0 0.25 0"/>
<feBlend mode="normal" in2="BackgroundImageFix" result="effect1_dropShadow_2015_201"/>
<feBlend mode="normal" in="SourceGraphic" in2="effect1_dropShadow_2015_201" result="shape"/>
</filter>
<filter id="filter1_d_2015_201" x="105.792" y="8.53601" width="361.72" height="111.232" filterUnits="userSpaceOnUse" color-interpolation-filters="sRGB">
<feFlood flood-opacity="0" result="BackgroundImageFix"/>
<feColorMatrix in="SourceAlpha" type="matrix" values="0 0 0 0 0 0 0 0 0 0 0 0 0 0 0 0 0 0 127 0" result="hardAlpha"/>
<feOffset dx="10" dy="4"/>
<feGaussianBlur stdDeviation="10"/>
<feComposite in2="hardAlpha" operator="out"/>
<feColorMatrix type="matrix" values="0 0 0 0 0 0 0 0 0 0 0 0 0 0 0 0 0 0 0.25 0"/>
<feBlend mode="normal" in2="BackgroundImageFix" result="effect1_dropShadow_2015_201"/>
<feBlend mode="normal" in="SourceGraphic" in2="effect1_dropShadow_2015_201" result="shape"/>
</filter>
</defs>
</svg>
